# Blender v2.90.0 OBJ File: ''
# www.blender.org
mtllib Slug.mtl
o Plane
v -0.517532 0.000000 0.095334
v 0.260594 0.000000 0.095334
v -0.517532 0.000000 -0.487273
v 0.260594 0.000000 -0.487273
vt 0.000000 0.000000
vt 1.000000 0.000000
vt 1.000000 1.000000
vt 0.000000 1.000000
vn 0.0000 1.0000 0.0000
usemtl None
s off
f 1/1/1 2/2/1 4/3/1 3/4/1
o Plane.001
v -0.302705 0.000000 0.724978
v 1.086583 0.000000 0.724978
v -0.302705 0.000000 0.058900
v 1.086583 0.000000 0.058900
vt 0.000000 0.000000
vt 1.000000 0.000000
vt 1.000000 1.000000
vt 0.000000 1.000000
vn 0.0000 1.0000 0.0000
usemtl None
s off
f 5/5/2 6/6/2 8/7/2 7/8/2
o Plane.002
v 0.215126 0.000000 1.746177
v 1.940540 0.000000 1.746177
v 0.215126 0.000000 0.763625
v 1.940540 0.000000 0.763625
vt 0.000000 0.000000
vt 1.000000 0.000000
vt 1.000000 1.000000
vt 0.000000 1.000000
vn 0.0000 1.0000 0.0000
usemtl None
s off
f 9/9/3 10/10/3 12/11/3 11/12/3
o Plane.003
v -1.129987 0.000000 -0.566696
v -0.487852 0.000000 -0.566696
v -1.129987 0.000000 -0.990174
v -0.487852 0.000000 -0.990174
vt 0.000000 0.000000
vt 1.000000 0.000000
vt 1.000000 1.000000
vt 0.000000 1.000000
vn 0.0000 1.0000 0.0000
usemtl None
s off
f 13/13/4 14/14/4 16/15/4 15/16/4
